<?xml version="1.0" encoding="UTF-8"?>
<svg version="1.1" xmlns="http://www.w3.org/2000/svg" width="512" height="512">
<path d="M0 0 C3.61294529 0.01844469 7.22563516 0.02050755 10.83862305 0.02026367 C13.17260961 0.02517451 15.50659447 0.03100092 17.84057617 0.0378418 C18.90224503 0.03895462 19.96391388 0.04006744 21.05775452 0.04121399 C41.04033933 0.1667249 41.04033933 0.1667249 47.02416992 4.20581055 C50.73981989 8.17771223 51.14473583 12.0098207 51.18530273 17.29614258 C51.19491028 18.31306183 51.20451782 19.32998108 51.2144165 20.37771606 C51.22079132 22.02899002 51.22079132 22.02899002 51.22729492 23.71362305 C51.232995 24.86708221 51.23869507 26.02054138 51.24456787 27.20895386 C51.25402654 29.66525355 51.26055528 32.12156597 51.2644043 34.57788086 C51.27393509 38.24056279 51.30487354 41.90263965 51.33666992 45.56518555 C51.51756973 85.58317021 44.5871766 126.5646531 28.02416992 163.20581055 C27.6385791 164.07093262 27.25298828 164.93605469 26.85571289 165.82739258 C25.66169528 168.4548093 24.41696393 171.05078791 23.14916992 173.64331055 C22.78718506 174.4307666 22.4252002 175.21822266 22.05224609 176.02954102 C16.45725932 186.94757746 2.96849442 189.15109044 -7.91333008 192.70581055 C-9.00192825 193.06565536 -9.00192825 193.06565536 -10.11251831 193.43276978 C-21.29305186 197.12795115 -32.50997936 200.50004917 -43.97583008 203.20581055 C-31.27176498 206.98371787 -18.71831232 210.02901189 -5.5715332 211.82397461 C-4.60666992 211.96416016 -3.64180664 212.1043457 -2.64770508 212.2487793 C-1.36524902 212.4192981 -1.36524902 212.4192981 -0.05688477 212.59326172 C2.02416992 213.20581055 2.02416992 213.20581055 4.02416992 216.20581055 C3.92082552 223.36837255 1.18338013 228.66907488 -2.16333008 234.89331055 C-2.69434326 235.89354248 -3.22535645 236.89377441 -3.77246094 237.92431641 C-13.96483345 256.74339689 -26.43811226 274.2236466 -40.92504883 289.97143555 C-42.83968699 292.05747941 -44.69405966 294.182631 -46.53833008 296.33081055 C-52.5093121 303.16854802 -59.01731751 309.38453061 -65.97583008 315.20581055 C-66.46341797 315.61782715 -66.95100586 316.02984375 -67.45336914 316.4543457 C-83.59139403 330.01591503 -101.24322223 341.5570537 -119.97583008 351.20581055 C-120.70914551 351.58543945 -121.44246094 351.96506836 -122.19799805 352.35620117 C-153.65371097 368.43676158 -188.67824082 377.72511299 -223.66333008 381.89331055 C-224.71891113 382.02229736 -225.77449219 382.15128418 -226.86206055 382.28417969 C-232.88275981 382.95500089 -238.80706181 383.25978623 -244.86254883 383.2331543 C-257.60309318 382.72974694 -257.60309318 382.72974694 -269.28295898 386.73022461 C-273.09305776 390.58313348 -275.465903 395.11749826 -277.80883789 399.95922852 C-279.63814211 403.48083049 -282.03438296 406.45638804 -284.53833008 409.51831055 C-284.98974365 410.08622314 -285.44115723 410.65413574 -285.90625 411.23925781 C-290.64513928 417.16180191 -295.73908278 422.72324154 -300.97583008 428.20581055 C-301.87172852 429.15456055 -302.76762695 430.10331055 -303.69067383 431.08081055 C-319.90902787 447.834347 -319.90902787 447.834347 -327.26879883 448.5065918 C-329.97583008 448.20581055 -329.97583008 448.20581055 -330.97583008 447.20581055 C-333.13741953 421.13299328 -318.99009565 391.5693237 -308.42114258 368.40112305 C-308.01283203 367.50425781 -307.60452148 366.60739258 -307.18383789 365.68334961 C-305.97583008 363.20581055 -305.97583008 363.20581055 -304.69750977 361.12670898 C-301.64420531 356.08045266 -301.90669894 352.78079472 -303.23803711 347.09350586 C-303.48150879 346.14056641 -303.72498047 345.18762695 -303.97583008 344.20581055 C-304.37827325 342.31946035 -304.77274359 340.43139245 -305.15942383 338.54174805 C-305.36349854 337.57962402 -305.56757324 336.6175 -305.77783203 335.6262207 C-313.19306061 300.09123749 -315.59234203 262.11117568 -308.97583008 226.20581055 C-308.7824707 225.14120605 -308.58911133 224.07660156 -308.38989258 222.97973633 C-304.05372455 199.93046044 -297.15372085 163.38370132 -279.97583008 146.20581055 C-276.66333008 145.58081055 -276.66333008 145.58081055 -272.97583008 146.20581055 C-270.76612443 148.54588231 -269.46759987 151.37367447 -267.97583008 154.20581055 C-261.17400673 165.46178299 -254.87952621 172.73619665 -243.97583008 180.20581055 C-244.11730469 179.65683105 -244.2587793 179.10785156 -244.40454102 178.54223633 C-246.42565638 169.39038444 -246.27815647 160.25949163 -246.23657227 150.93823242 C-246.22593204 148.10793229 -246.23646979 145.27827789 -246.24926758 142.44799805 C-246.25673954 133.79073718 -246.06961701 125.21390718 -245.10864258 116.60424805 C-244.9971286 115.56782669 -244.9971286 115.56782669 -244.88336182 114.51046753 C-244.12299932 108.53593563 -242.1587509 105.35643082 -237.97583008 101.20581055 C-237.06711245 100.20780094 -236.1639496 99.20471915 -235.26489258 98.19799805 C-225.8404733 87.70413018 -216.02775634 77.99030936 -204.97583008 69.20581055 C-203.82972476 68.25979765 -202.68526892 67.31178382 -201.54223633 66.36206055 C-161.03027955 32.93371618 -110.10574638 13.17071227 -58.72583008 4.45581055 C-57.55584473 4.25705322 -56.38585937 4.0582959 -55.18041992 3.85351562 C-51.45181282 3.25235181 -47.71921762 2.70494766 -43.97583008 2.20581055 C-43.26621124 2.11085297 -42.55659241 2.01589539 -41.82546997 1.9180603 C-27.88745444 0.12676041 -14.03885014 -0.07413699 0 0 Z " fill="#DAA5FE" transform="translate(396.975830078125,31.794189453125)"/>
<path d="M0 0 C3.61294529 0.01844469 7.22563516 0.02050755 10.83862305 0.02026367 C13.17260961 0.02517451 15.50659447 0.03100092 17.84057617 0.0378418 C18.90224503 0.03895462 19.96391388 0.04006744 21.05775452 0.04121399 C41.04033933 0.1667249 41.04033933 0.1667249 47.02416992 4.20581055 C50.73981989 8.17771223 51.14473583 12.0098207 51.18530273 17.29614258 C51.19491028 18.31306183 51.20451782 19.32998108 51.2144165 20.37771606 C51.22079132 22.02899002 51.22079132 22.02899002 51.22729492 23.71362305 C51.232995 24.86708221 51.23869507 26.02054138 51.24456787 27.20895386 C51.25402654 29.66525355 51.26055528 32.12156597 51.2644043 34.57788086 C51.27393509 38.24056279 51.30487354 41.90263965 51.33666992 45.56518555 C51.51756973 85.58317021 44.5871766 126.5646531 28.02416992 163.20581055 C27.6385791 164.07093262 27.25298828 164.93605469 26.85571289 165.82739258 C25.66169528 168.4548093 24.41696393 171.05078791 23.14916992 173.64331055 C22.78718506 174.4307666 22.4252002 175.21822266 22.05224609 176.02954102 C16.45725932 186.94757746 2.96849442 189.15109044 -7.91333008 192.70581055 C-9.00192825 193.06565536 -9.00192825 193.06565536 -10.11251831 193.43276978 C-21.29305186 197.12795115 -32.50997936 200.50004917 -43.97583008 203.20581055 C-31.27176498 206.98371787 -18.71831232 210.02901189 -5.5715332 211.82397461 C-4.60666992 211.96416016 -3.64180664 212.1043457 -2.64770508 212.2487793 C-1.36524902 212.4192981 -1.36524902 212.4192981 -0.05688477 212.59326172 C2.02416992 213.20581055 2.02416992 213.20581055 4.02416992 216.20581055 C3.92082552 223.36837255 1.18338013 228.66907488 -2.16333008 234.89331055 C-2.69434326 235.89354248 -3.22535645 236.89377441 -3.77246094 237.92431641 C-13.96483345 256.74339689 -26.43811226 274.2236466 -40.92504883 289.97143555 C-42.83968699 292.05747941 -44.69405966 294.182631 -46.53833008 296.33081055 C-52.5093121 303.16854802 -59.01731751 309.38453061 -65.97583008 315.20581055 C-66.46341797 315.61782715 -66.95100586 316.02984375 -67.45336914 316.4543457 C-83.59139403 330.01591503 -101.24322223 341.5570537 -119.97583008 351.20581055 C-120.70914551 351.58543945 -121.44246094 351.96506836 -122.19799805 352.35620117 C-154.26618063 368.74986385 -189.8792044 377.95686701 -225.53833008 382.08081055 C-227.22381958 382.27936646 -227.22381958 382.27936646 -228.94335938 382.48193359 C-234.8594159 383.1078125 -240.11128222 383.2436578 -245.97583008 382.20581055 C-244.53833008 379.76831055 -244.53833008 379.76831055 -241.97583008 377.20581055 C-239.96269226 377.00007629 -239.96269226 377.00007629 -237.68164062 377.01367188 C-234.94347223 376.76961601 -233.44312251 376.59176711 -231.30703735 374.82748413 C-229.76149943 372.86066745 -228.43169867 370.84777729 -227.12036133 368.7175293 C-226.61593002 367.95151398 -226.11149872 367.18549866 -225.59178162 366.39627075 C-223.96361121 363.91172022 -222.3766891 361.4034563 -220.78833008 358.89331055 C-219.67328399 357.17928269 -218.55510773 355.46728714 -217.43383789 353.75732422 C-215.24095018 350.40872217 -213.06046022 347.05263306 -210.89038086 343.68920898 C-207.45406721 338.37991529 -203.88336008 333.17803079 -200.22583008 328.01831055 C-199.69159424 327.26050293 -199.1573584 326.50269531 -198.60693359 325.72192383 C-197.06883143 323.54583843 -195.52377982 321.37489961 -193.97583008 319.20581055 C-193.42540039 318.43301758 -192.8749707 317.66022461 -192.30786133 316.86401367 C-185.38454583 307.160282 -178.32416705 297.59211736 -170.97583008 288.20581055 C-170.06042351 287.0313641 -169.14506025 285.8568839 -168.22973633 284.68237305 C-163.25592291 278.31423422 -158.21568605 272.00897937 -153.07739258 265.7722168 C-151.07952245 263.33243859 -149.11845517 260.8673886 -147.16333008 258.39331055 C-140.19021301 249.66307866 -132.88779334 241.20802339 -125.28833008 233.01831055 C-121.00060787 228.3912722 -117.00071413 223.60155947 -113.05004883 218.6862793 C-110.65345455 215.82029555 -108.09855772 213.20838987 -105.38598633 210.64331055 C-103.74117703 209.05608042 -103.74117703 209.05608042 -101.97583008 206.20581055 C-101.31583008 206.20581055 -100.65583008 206.20581055 -99.97583008 206.20581055 C-99.72188477 205.6231543 -99.46793945 205.04049805 -99.20629883 204.44018555 C-97.84262675 201.96393022 -96.33357804 200.40060429 -94.28833008 198.45581055 C-91.63725987 195.87587818 -89.11796441 193.27700091 -86.72583008 190.45581055 C-83.19524675 186.34219511 -79.38136983 182.55077342 -75.50219727 178.76928711 C-72.78432768 176.09855869 -70.21592314 173.35938251 -67.7355957 170.46557617 C-64.23422343 166.44675746 -60.55003038 162.66674431 -56.75708008 158.92456055 C-55.76472351 157.93788391 -55.76472351 157.93788391 -54.75231934 156.93127441 C-51.96004864 154.15514496 -49.16177591 151.38509518 -46.36401367 148.61450195 C-44.3054211 146.57413975 -42.24995105 144.53066723 -40.19458008 142.48706055 C-39.5745813 141.87536011 -38.95458252 141.26365967 -38.3157959 140.63342285 C-34.5620511 136.90042955 -31.00911115 133.04527388 -27.5531311 129.03475952 C-26.02461063 127.26237372 -24.47100726 125.51586296 -22.90551758 123.77612305 C-5.76282048 104.53398014 14.51375462 80.42474459 14.31323242 53.35424805 C13.74565017 47.17220353 11.7084415 41.40689078 7.02416992 37.20581055 C8.13365009 33.87737003 8.71014345 33.42756646 11.45385742 31.46362305 C12.53812012 30.68100098 12.53812012 30.68100098 13.64428711 29.88256836 C14.42964844 29.32923828 15.21500977 28.7759082 16.02416992 28.20581055 C17.22928223 27.34874512 17.22928223 27.34874512 18.45874023 26.47436523 C21.0149119 24.66585638 23.58052178 22.87154726 26.14916992 21.08081055 C27.01670898 20.47366211 27.88424805 19.86651367 28.77807617 19.2409668 C33.16135803 16.17867399 37.55942671 13.14814951 42.02416992 10.20581055 C37.25111699 5.43275762 25.99652576 7.03038729 19.53588867 7.00268555 C17.9032029 6.99223206 17.9032029 6.99223206 16.23753357 6.98156738 C12.7288729 6.96420883 9.22037179 6.95784392 5.71166992 6.95581055 C4.51676941 6.95480347 3.3218689 6.95379639 2.09075928 6.95275879 C-15.48624868 6.96280296 -32.59006341 7.45585461 -49.97583008 10.20581055 C-50.9379541 10.3450293 -51.90007812 10.48424805 -52.89135742 10.62768555 C-88.53619866 15.79759369 -126.69792916 26.49541352 -157.49926758 45.66674805 C-160.1026659 47.28463281 -162.76432348 48.7149958 -165.47583008 50.14331055 C-186.59402065 61.62124294 -205.4779653 77.60284334 -222.47583008 94.45581055 C-223.60674072 95.57270264 -223.60674072 95.57270264 -224.76049805 96.7121582 C-226.87559364 98.83954812 -228.93081613 101.01121141 -230.97583008 103.20581055 C-231.56750977 103.78782227 -232.15918945 104.36983398 -232.76879883 104.96948242 C-241.49678936 114.61676494 -239.29695519 132.37997943 -239.23657227 144.6237793 C-239.22583992 147.2034453 -239.2365455 149.78241527 -239.24926758 152.36206055 C-239.25330502 161.76839721 -238.72021635 170.74187552 -237.11157227 180.01831055 C-236.97583008 183.20581055 -236.97583008 183.20581055 -238.24536133 185.61645508 C-239.97583008 187.20581055 -239.97583008 187.20581055 -242.86645508 187.63549805 C-252.01259908 186.37158367 -260.2635141 176.93203998 -265.97583008 170.20581055 C-268.55013799 166.61866017 -270.87602173 162.88646356 -273.16333008 159.11206055 C-274.82163302 156.20947311 -274.82163302 156.20947311 -276.97583008 154.20581055 C-291.48382681 181.48547462 -300.09910799 210.58124239 -303.97583008 241.20581055 C-304.0620311 241.85467728 -304.14823212 242.50354401 -304.23704529 243.17207336 C-304.97231857 249.10596074 -305.12516888 254.96159627 -305.15161133 260.9362793 C-305.17478661 262.97600342 -305.19890296 265.01571703 -305.22387695 267.05541992 C-305.25908364 270.23510063 -305.28841849 273.41438551 -305.30175781 276.59423828 C-305.31723439 279.68788741 -305.35740551 282.78042468 -305.40161133 285.8737793 C-305.39970291 286.82077194 -305.39779449 287.76776459 -305.39582825 288.74345398 C-305.50230673 294.49937203 -306.17900203 297.79515968 -309.97583008 302.20581055 C-310.30583008 302.20581055 -310.63583008 302.20581055 -310.97583008 302.20581055 C-311.80331789 296.40137324 -312.1475046 290.75668495 -312.17895508 284.8972168 C-312.18601471 284.02173691 -312.19307434 283.14625702 -312.2003479 282.24424744 C-312.3176422 263.39476211 -312.40349156 244.80646265 -308.97583008 226.20581055 C-308.7824707 225.14120605 -308.58911133 224.07660156 -308.38989258 222.97973633 C-304.05372455 199.93046044 -297.15372085 163.38370132 -279.97583008 146.20581055 C-276.66333008 145.58081055 -276.66333008 145.58081055 -272.97583008 146.20581055 C-270.76612443 148.54588231 -269.46759987 151.37367447 -267.97583008 154.20581055 C-261.17400673 165.46178299 -254.87952621 172.73619665 -243.97583008 180.20581055 C-244.11730469 179.65683105 -244.2587793 179.10785156 -244.40454102 178.54223633 C-246.42565638 169.39038444 -246.27815647 160.25949163 -246.23657227 150.93823242 C-246.22593204 148.10793229 -246.23646979 145.27827789 -246.24926758 142.44799805 C-246.25673954 133.79073718 -246.06961701 125.21390718 -245.10864258 116.60424805 C-244.9971286 115.56782669 -244.9971286 115.56782669 -244.88336182 114.51046753 C-244.12299932 108.53593563 -242.1587509 105.35643082 -237.97583008 101.20581055 C-237.06711245 100.20780094 -236.1639496 99.20471915 -235.26489258 98.19799805 C-225.8404733 87.70413018 -216.02775634 77.99030936 -204.97583008 69.20581055 C-203.82972476 68.25979765 -202.68526892 67.31178382 -201.54223633 66.36206055 C-161.03027955 32.93371618 -110.10574638 13.17071227 -58.72583008 4.45581055 C-57.55584473 4.25705322 -56.38585937 4.0582959 -55.18041992 3.85351562 C-51.45181282 3.25235181 -47.71921762 2.70494766 -43.97583008 2.20581055 C-43.26621124 2.11085297 -42.55659241 2.01589539 -41.82546997 1.9180603 C-27.88745444 0.12676041 -14.03885014 -0.07413699 0 0 Z " fill="#DDB1FE" transform="translate(396.975830078125,31.794189453125)"/>
<path d="M0 0 C1.5 2.1875 1.5 2.1875 2 4 C0.35 5.65 -1.3 7.3 -3 9 C-2.52304687 9.41121094 -2.04609375 9.82242188 -1.5546875 10.24609375 C1.21751662 13.37353006 1.07583247 16.95560144 1 21 C-1.05852569 36.6014579 -13.57853612 51.09885916 -23 63 C-23.7734375 63.98742187 -24.546875 64.97484375 -25.34375 65.9921875 C-30.69757383 72.68446728 -36.46351965 78.97322805 -42.328125 85.21484375 C-44.01929875 87.02060637 -45.69786981 88.83744443 -47.375 90.65625 C-57.17647569 101.23159627 -67.34682706 111.42025584 -77.59594727 121.55908203 C-82.7703212 126.68842365 -87.85706692 131.8087147 -92.58374023 137.36108398 C-94.60340705 139.69827125 -96.78784171 141.8460564 -99 144 C-102.462758 147.42647161 -105.73625123 150.9154813 -108.8984375 154.6171875 C-111.81337804 157.9222316 -114.85106964 161.10736481 -117.875 164.3125 C-122.7436268 169.48665179 -127.35770202 174.76984946 -131.79296875 180.32421875 C-134.25980779 183.3149882 -136.86006199 186.16326826 -139.5 189 C-143.67959913 193.502653 -147.65171623 198.12410198 -151.50390625 202.91015625 C-153.39098023 205.24611168 -155.29340728 207.56368697 -157.21484375 209.87109375 C-164.8413418 219.0385037 -172.20264247 228.36543484 -179.39111328 237.87939453 C-180.99935947 239.99915575 -182.62031319 242.10850805 -184.24609375 244.21484375 C-191.50597796 253.62741872 -198.55845308 263.17018188 -205.46191406 272.84716797 C-206.8719284 274.82074042 -208.2903487 276.78794078 -209.7109375 278.75390625 C-216.76617573 288.57637987 -223.47908442 298.62676341 -230.1875 308.6875 C-230.65517792 309.38851837 -231.12285583 310.08953674 -231.60470581 310.8117981 C-232.98162142 312.87733765 -234.35614468 314.94445428 -235.73046875 317.01171875 C-236.39749062 318.01033684 -236.39749062 318.01033684 -237.07798767 319.02912903 C-239.28571332 322.34916637 -241.4374881 325.68914902 -243.50244141 329.10009766 C-244.10044304 330.07460625 -244.10044304 330.07460625 -244.71052551 331.06880188 C-245.45760126 332.29252197 -246.19197072 333.52412698 -246.91093445 334.76457214 C-248.48644983 337.33100459 -249.49270471 338.81355366 -252.36547852 339.86938477 C-255.34628481 340.01716823 -258.30381704 340.12971164 -261.2890625 340.1328125 C-262.47757812 340.13410156 -263.66609375 340.13539063 -264.890625 340.13671875 C-266.12296875 340.13285156 -267.3553125 340.12898438 -268.625 340.125 C-269.86507812 340.12886719 -271.10515625 340.13273437 -272.3828125 340.13671875 C-274.16171875 340.13478516 -274.16171875 340.13478516 -275.9765625 340.1328125 C-277.06018066 340.13168457 -278.14379883 340.13055664 -279.26025391 340.12939453 C-282 340 -282 340 -285 339 C-285.33 340.65 -285.66 342.3 -286 344 C-278.74 344.33 -271.48 344.66 -264 345 C-265.47784485 348.69461214 -266.49351707 350.96368651 -268.72265625 354.0390625 C-269.52364746 355.14894531 -269.52364746 355.14894531 -270.34082031 356.28125 C-271.19305176 357.44140625 -271.19305176 357.44140625 -272.0625 358.625 C-272.64741211 359.42679687 -273.23232422 360.22859375 -273.83496094 361.0546875 C-302.06173726 399.49642571 -302.06173726 399.49642571 -321 410 C-324.2890625 410.296875 -324.2890625 410.296875 -327 410 C-328.52748144 408.47251856 -328.14614148 407.10452008 -328.1484375 404.98046875 C-327.78457203 376.99039315 -313.73892878 344.87012584 -300.64453125 320.62890625 C-298.97222919 316.93871953 -298.59585588 315.63651983 -299.5625 311.8125 C-299.88541016 310.42804688 -299.88541016 310.42804688 -300.21484375 309.015625 C-300.47394531 308.02046875 -300.73304688 307.0253125 -301 306 C-301.54646654 303.68862955 -302.08809708 301.37611066 -302.625 299.0625 C-302.88539063 298.00160156 -303.14578125 296.94070313 -303.4140625 295.84765625 C-304 293 -304 293 -304 289 C-302.68072622 287.98152346 -301.34516465 286.98402736 -300 286 C-298.48637201 283.4677648 -298.48637201 283.4677648 -297.2109375 280.55078125 C-294.1210039 274.10874374 -290.51227459 268.17480755 -286.625 262.1875 C-285.58496826 260.57560791 -285.58496826 260.57560791 -284.52392578 258.93115234 C-266.76556528 231.58255611 -247.21153518 205.56558424 -227 180 C-226.30003906 179.11441406 -225.60007812 178.22882813 -224.87890625 177.31640625 C-220.50259266 171.81299379 -216.02197173 166.40248076 -211.5078125 161.01171875 C-209.12648053 158.15189484 -206.77912555 155.2673563 -204.4375 152.375 C-200.79091773 147.90520339 -196.99977035 143.59749856 -193.1171875 139.33203125 C-191.21948831 137.24176111 -189.35266585 135.13013885 -187.5 133 C-182.46736338 127.22862773 -177.34253531 121.5398699 -172.15625 115.90625 C-171.67317383 115.3812793 -171.19009766 114.85630859 -170.69238281 114.31542969 C-169.32248812 112.82867194 -167.95036811 111.3439655 -166.578125 109.859375 C-164.73829379 107.81883493 -163.01008367 105.78025457 -161.296875 103.640625 C-160.53890625 102.76921875 -159.7809375 101.8978125 -159 101 C-158.34 101 -157.68 101 -157 101 C-156.79455566 100.46930908 -156.58911133 99.93861816 -156.37744141 99.3918457 C-154.42634452 96.00388111 -151.72143301 93.45658995 -148.9609375 90.73046875 C-148.36125153 90.131241 -147.76156555 89.53201324 -147.14370728 88.91462708 C-145.87339709 87.64733463 -144.6006607 86.38247017 -143.32568359 85.11987305 C-141.3976141 83.20990182 -139.47750968 81.29220964 -137.55859375 79.37304688 C-126.49174163 68.33915647 -126.49174163 68.33915647 -120.58642578 63.37426758 C-118.80217358 61.82862959 -117.15276327 60.18477273 -115.5 58.5 C-111.83691768 54.78763855 -107.96156653 51.38897036 -104 48 C-103.09894531 47.20980469 -102.19789063 46.41960937 -101.26953125 45.60546875 C-78.53766342 25.82511907 -52.31212859 6.34296925 -23 -2 C-21.96552734 -2.30164063 -21.96552734 -2.30164063 -20.91015625 -2.609375 C-13.60518105 -4.10323496 -6.60706476 -3.3635966 0 0 Z " fill="#9FB1FA" transform="translate(394,70)"/>
<path d="M0 0 C1.21484375 2.109375 1.21484375 2.109375 2 4 C-3.60405294 8.69893099 -9.20515854 13.39506797 -14.9375 17.9375 C-20.484768 22.35231137 -25.88704629 26.93232488 -31.27929688 31.53369141 C-33.01105917 33.00942415 -34.74742194 34.4796012 -36.484375 35.94921875 C-43.91599346 42.25477174 -51.15826367 48.72873959 -58.27441406 55.38769531 C-60.1341581 57.12535089 -62.00026254 58.85600059 -63.8671875 60.5859375 C-69.764373 66.05846155 -75.61280151 71.54700025 -81.25390625 77.28515625 C-83.06611419 79.06493093 -84.94694557 80.7218365 -86.875 82.375 C-95.48075436 89.34060891 -95.48075436 89.34060891 -102 98 C-102.66 98 -103.32 98 -104 98 C-104.25885986 98.58555664 -104.51771973 99.17111328 -104.78442383 99.77441406 C-106.09221724 102.1688396 -107.49736101 103.71093329 -109.44921875 105.609375 C-110.13306641 106.28226562 -110.81691406 106.95515625 -111.52148438 107.6484375 C-112.23626953 108.34195313 -112.95105469 109.03546875 -113.6875 109.75 C-118.42531817 114.36926294 -122.9898413 119.03481866 -127.30493164 124.05322266 C-130.06846889 127.22713106 -132.98038513 130.25863052 -135.875 133.3125 C-140.74480356 138.48550199 -145.35778905 143.76995846 -149.79296875 149.32421875 C-152.25979982 152.31497855 -154.85992315 155.16340376 -157.5 158 C-162.58461756 163.47276303 -167.32153998 169.17510654 -172 175 C-173.43609985 176.75114918 -174.87362323 178.50113183 -176.3125 180.25 C-185.84314879 191.91141776 -195.17553203 203.70769972 -204.26855469 215.71386719 C-205.44738521 217.270349 -206.62778629 218.8256423 -207.80957031 220.37988281 C-233.91601346 254.7348072 -257.71116006 290.64081335 -278.56689453 328.41699219 C-280.3487595 331.6285989 -282.16671148 334.8175187 -284 338 C-286.58202487 335.41797513 -287.22736621 332.66030292 -288.25 329.25 C-288.56771362 328.20501343 -288.56771362 328.20501343 -288.8918457 327.13891602 C-289.60607831 324.76253515 -290.30469516 322.38198577 -291 320 C-291.25894043 319.12005371 -291.51788086 318.24010742 -291.78466797 317.33349609 C-293.41128976 311.75918455 -294.93895524 306.16920839 -296.35302734 300.53710938 C-296.75451506 298.96267151 -297.17348811 297.39244983 -297.61962891 295.83007812 C-299.53383007 289.04718444 -299.94203138 283.80413257 -296.56640625 277.43603516 C-294.79814959 274.46985709 -292.8831709 271.62437909 -290.91699219 268.78613281 C-288.63577502 265.4706399 -286.43120314 262.10885559 -284.2265625 258.7421875 C-268.03570835 234.10606962 -250.83842732 210.24827876 -232.62109375 187.06640625 C-231.09554041 185.12178524 -229.57763232 183.17149546 -228.0625 181.21875 C-222.73816387 174.37170788 -217.25927175 167.6877553 -211.625 161.09375 C-209.16084036 158.2044868 -206.76339 155.26481542 -204.375 152.3125 C-200.75165505 147.86096192 -196.98036128 143.57617545 -193.1171875 139.33203125 C-191.21948831 137.24176111 -189.35266585 135.13013885 -187.5 133 C-182.46736338 127.22862773 -177.34253531 121.5398699 -172.15625 115.90625 C-171.67317383 115.3812793 -171.19009766 114.85630859 -170.69238281 114.31542969 C-169.32248812 112.82867194 -167.95036811 111.3439655 -166.578125 109.859375 C-164.73829379 107.81883493 -163.01008367 105.78025457 -161.296875 103.640625 C-160.53890625 102.76921875 -159.7809375 101.8978125 -159 101 C-158.34 101 -157.68 101 -157 101 C-156.79455566 100.46930908 -156.58911133 99.93861816 -156.37744141 99.3918457 C-154.42634452 96.00388111 -151.72143301 93.45658995 -148.9609375 90.73046875 C-148.36125153 90.131241 -147.76156555 89.53201324 -147.14370728 88.91462708 C-145.87339709 87.64733463 -144.6006607 86.38247017 -143.32568359 85.11987305 C-141.3976141 83.20990182 -139.47750968 81.29220964 -137.55859375 79.37304688 C-126.49174163 68.33915647 -126.49174163 68.33915647 -120.58642578 63.37426758 C-118.80217358 61.82862959 -117.15276327 60.18477273 -115.5 58.5 C-111.83691768 54.78763855 -107.96156653 51.38897036 -104 48 C-103.09894531 47.20980469 -102.19789063 46.41960937 -101.26953125 45.60546875 C-78.53766342 25.82511907 -52.31212859 6.34296925 -23 -2 C-21.96552734 -2.30164063 -21.96552734 -2.30164063 -20.91015625 -2.609375 C-13.60518105 -4.10323496 -6.60706476 -3.3635966 0 0 Z " fill="#8AA1F9" transform="translate(394,70)"/>
<path d="M0 0 C6.57295622 5.1308768 11.1876191 10.7597082 13 19 C15.63465899 41.85413495 0.05535579 62.67447244 -13.31640625 79.66015625 C-27.97968529 98.03101926 -44.50427318 114.63980784 -61.18945312 131.15283203 C-66.48429776 136.40326047 -71.70772375 141.63248682 -76.54101562 147.31835938 C-78.88660016 150.0219046 -81.43877297 152.50287794 -84 155 C-89.54021549 160.47209455 -94.67746472 166.17434174 -99.625 172.1875 C-102.41708032 175.4939109 -105.4220435 178.49737308 -108.5546875 181.48046875 C-112.00691899 184.82929239 -115.11539588 188.30876299 -118.125 192.0625 C-121.7405882 196.56039044 -125.54309375 200.80057738 -129.5 205 C-134.94665254 210.79227225 -140.04073533 216.78241445 -145 223 C-146.41438261 224.73103543 -147.83111078 226.46015661 -149.25 228.1875 C-150.36181641 229.54875 -150.36181641 229.54875 -151.49609375 230.9375 C-153.33846721 233.19088657 -155.18533027 235.44025272 -157.03515625 237.6875 C-164.0685318 246.25660732 -170.85541936 254.96971138 -177.43896484 263.88867188 C-179.05285038 266.07148109 -180.6762477 268.24698152 -182.30078125 270.421875 C-193.18475469 285.03504964 -203.65045474 299.93580208 -213.73942566 315.10848999 C-216.00516839 318.51580758 -218.2782764 321.91819406 -220.55062866 325.32110596 C-222.23303082 327.84949792 -223.90231249 330.38623347 -225.5715332 332.92333984 C-226.61480431 334.48835108 -227.65864256 336.05298444 -228.703125 337.6171875 C-229.17854233 338.34836792 -229.65395966 339.07954834 -230.14378357 339.83288574 C-230.59294632 340.500177 -231.04210907 341.16746826 -231.50488281 341.85498047 C-231.8918634 342.44068817 -232.27884399 343.02639587 -232.67755127 343.62985229 C-234.37195882 345.38537488 -235.62139814 345.58412153 -238 346 C-242.98232563 347.12116889 -242.98232563 347.12116889 -247 350 C-244.69 350.33 -242.38 350.66 -240 351 C-240 351.33 -240 351.66 -240 352 C-253.27648412 352.88090416 -266.32482588 353.17127354 -279.625 352.5625 C-280.51550049 352.52334473 -281.40600098 352.48418945 -282.32348633 352.44384766 C-283.57488403 352.38076416 -283.57488403 352.38076416 -284.8515625 352.31640625 C-285.60260254 352.27974854 -286.35364258 352.24309082 -287.12744141 352.20532227 C-289 352 -289 352 -291 351 C-290.67 349.35 -290.34 347.7 -290 346 C-289.04633545 346.00523682 -288.0926709 346.01047363 -287.11010742 346.01586914 C-283.57105447 346.03397265 -280.03200562 346.04545161 -276.49291992 346.05493164 C-274.9613374 346.0599596 -273.42975967 346.06678284 -271.89819336 346.07543945 C-269.69643978 346.08757229 -267.49474967 346.09324367 -265.29296875 346.09765625 C-264.26625313 346.10539818 -264.26625313 346.10539818 -263.21879578 346.11329651 C-260.19093758 346.1136536 -257.89849858 345.96616619 -255 345 C-253.47743356 343.10875798 -253.47743356 343.10875798 -252.06640625 340.72265625 C-251.22589722 339.3771167 -251.22589722 339.3771167 -250.3684082 338.00439453 C-249.7724585 337.03356934 -249.17650879 336.06274414 -248.5625 335.0625 C-247.29842751 333.03939372 -246.03277898 331.0172714 -244.765625 328.99609375 C-243.81526367 327.47604736 -243.81526367 327.47604736 -242.84570312 325.92529297 C-238.38209315 318.85082542 -233.69027184 311.92542897 -229 305 C-228.3184082 303.99211426 -228.3184082 303.99211426 -227.62304688 302.96386719 C-216.55506416 286.63262075 -204.91298895 270.7227072 -193 255 C-192.47937988 254.3105127 -191.95875977 253.62102539 -191.42236328 252.91064453 C-183.95721953 243.03050748 -176.30456986 233.32891092 -168.44433594 223.76025391 C-167.14855163 222.18104416 -165.85902202 220.59670714 -164.5703125 219.01171875 C-156.65643751 209.28131374 -148.59628783 199.70857626 -140.15234375 190.43359375 C-137.99495154 187.99429185 -135.96458034 185.48572009 -133.9375 182.9375 C-128.61684121 176.35889211 -122.77212043 170.29278822 -116.9453125 164.1640625 C-113.5844206 160.62891408 -110.27824077 157.04919072 -107 153.4375 C-103.40800226 149.49598153 -99.72609151 145.69046486 -95.921875 141.95483398 C-94.25324719 140.25759022 -92.7275493 138.52805183 -91.203125 136.703125 C-84.56248499 129.06092271 -77.15138662 122.0995767 -69.9609375 114.98144531 C-60.3295513 105.50686436 -60.3295513 105.50686436 -51.27246094 95.49072266 C-49.66322002 93.60545308 -47.9221744 91.89281882 -46.125 90.1875 C-42.2732108 86.37998423 -38.85700508 82.32220738 -35.4765625 78.09375 C-33.72282331 75.90295908 -31.95258033 73.74182642 -30.1484375 71.59375 C-11.56858602 49.31917486 -11.56858602 49.31917486 -5 22 C-6.29791982 19.10960374 -6.29791982 19.10960374 -8 17 C-8 16.01 -8 15.02 -8 14 C-6 12.3125 -6 12.3125 -4 11 C-4.33 10.01 -4.66 9.02 -5 8 C-14.68958999 3.15520501 -23.69692694 4.41459045 -33.73535156 7.66259766 C-41.52429119 10.36836448 -48.76934433 14.06961092 -56 18 C-56.9796875 18.52078125 -57.959375 19.0415625 -58.96875 19.578125 C-73.21430155 27.50121266 -86.6443099 37.39862926 -99 48 C-100.02873428 48.85822768 -101.05875077 49.71492005 -102.08984375 50.5703125 C-109.35733378 56.62074311 -116.36539857 62.91032148 -123.26367188 69.37695312 C-125.05957534 71.05568854 -126.86497502 72.72373611 -128.671875 74.390625 C-136.45075942 81.5917228 -144.05547567 88.95325979 -151.5625 96.4375 C-152.39531494 97.26572266 -153.22812988 98.09394531 -154.08618164 98.94726562 C-158.39888133 103.27085267 -162.54131865 107.67509995 -166.52319336 112.30493164 C-168.2613433 114.29996802 -170.09684008 116.16246628 -172 118 C-175.17089998 121.12845964 -178.1256996 124.36855352 -181.02734375 127.74609375 C-182.9648538 129.95984286 -184.9514439 132.12242248 -186.95239258 134.27880859 C-191.77935551 139.48268385 -196.36072931 144.810835 -200.8125 150.34375 C-203.01037098 153.01259334 -205.29327516 155.5727066 -207.625 158.125 C-210.99620721 161.82808772 -214.11242104 165.63450728 -217.14453125 169.6171875 C-219.23770307 172.30526079 -221.42450064 174.89908771 -223.625 177.5 C-228.22590434 182.96484505 -232.57696824 188.60183698 -236.89428711 194.29223633 C-240.35698033 198.8560751 -243.85672757 203.38734602 -247.39160156 207.89550781 C-253.34396739 215.49213783 -259.12450528 223.1674037 -264.65136719 231.07861328 C-266.14408957 233.2052833 -267.65364377 235.3194584 -269.1640625 237.43359375 C-275.82925307 246.80475815 -282.23365221 256.31670342 -288.4375 266 C-289.41227295 267.52040894 -289.41227295 267.52040894 -290.40673828 269.0715332 C-294.77987915 275.94898491 -298.94098546 282.93294478 -303 290 C-305.97318128 285.54022808 -306.38405935 281.31121706 -306 276 C-304.53904015 272.2903285 -302.41115177 269.26699225 -300.0625 266.0625 C-299.45929932 265.19133545 -298.85609863 264.3201709 -298.23461914 263.42260742 C-297.0404384 261.70027754 -295.83527382 259.98550076 -294.61816406 258.27929688 C-292.64691316 255.50265257 -290.79153285 252.66849954 -288.9375 249.8125 C-269.67944726 221.06792234 -248.62768965 193.44046 -226.52197266 166.83789062 C-224.45604619 164.34313694 -222.41588667 161.82775493 -220.375 159.3125 C-212.58572199 149.78905991 -204.53819079 140.5042001 -196.22265625 131.4375 C-194.32578236 129.35727275 -192.46607057 127.25443102 -190.625 125.125 C-186.06954509 119.88994343 -181.33327194 114.8211765 -176.609375 109.73876953 C-175.08545391 108.09232444 -173.57266275 106.43640289 -172.0625 104.77734375 C-163.98415169 95.95322235 -155.57436706 87.46650689 -147.125 79 C-146.53709686 78.40950867 -145.94919373 77.81901733 -145.34347534 77.21063232 C-139.60027106 71.44749715 -133.8772538 65.7187225 -127.68164062 60.43652344 C-125.11188749 58.24133943 -122.66051242 55.92853325 -120.1875 53.625 C-105.01984554 39.64944817 -88.42042738 27.03663006 -71 16 C-70.07622559 15.4124292 -70.07622559 15.4124292 -69.13378906 14.81298828 C-50.72433805 3.19328013 -21.25981215 -14.16048529 0 0 Z " fill="#B0A6FA" transform="translate(399,63)"/>
<path d="M0 0 C5.53396821 3.38186946 7.44567982 7.92478079 9 14 C11.6534075 36.14121149 -3.17150282 56.43773569 -16.01831055 73.01123047 C-30.99389528 92.03419441 -48.006435 109.1471063 -65.18945312 126.15283203 C-70.48429776 131.40326047 -75.70772375 136.63248682 -80.54101562 142.31835938 C-82.88660016 145.0219046 -85.43877297 147.50287794 -88 150 C-93.54021549 155.47209455 -98.67746472 161.17434174 -103.625 167.1875 C-106.41708032 170.4939109 -109.4220435 173.49737308 -112.5546875 176.48046875 C-116.00691899 179.82929239 -119.11539588 183.30876299 -122.125 187.0625 C-125.7405882 191.56039044 -129.54309375 195.80057738 -133.5 200 C-138.94665254 205.79227225 -144.04073533 211.78241445 -149 218 C-150.41438261 219.73103543 -151.83111078 221.46015661 -153.25 223.1875 C-154.36181641 224.54875 -154.36181641 224.54875 -155.49609375 225.9375 C-157.33846721 228.19088657 -159.18533027 230.44025272 -161.03515625 232.6875 C-168.0685318 241.25660732 -174.85541936 249.96971138 -181.43896484 258.88867188 C-183.05285038 261.07148109 -184.6762477 263.24698152 -186.30078125 265.421875 C-197.18475469 280.03504964 -207.65045474 294.93580208 -217.73942566 310.10848999 C-220.00516839 313.51580758 -222.2782764 316.91819406 -224.55062866 320.32110596 C-226.23303082 322.84949792 -227.90231249 325.38623347 -229.5715332 327.92333984 C-230.61480431 329.48835108 -231.65864256 331.05298444 -232.703125 332.6171875 C-233.41625099 333.71395813 -233.41625099 333.71395813 -234.14378357 334.83288574 C-234.59294632 335.500177 -235.04210907 336.16746826 -235.50488281 336.85498047 C-235.8918634 337.44068817 -236.27884399 338.02639587 -236.67755127 338.62985229 C-238.37195882 340.38537488 -239.62139814 340.58412153 -242 341 C-246.98232563 342.12116889 -246.98232563 342.12116889 -251 345 C-248.69 345.33 -246.38 345.66 -244 346 C-244 346.33 -244 346.66 -244 347 C-257.27648412 347.88090416 -270.32482588 348.17127354 -283.625 347.5625 C-284.51550049 347.52334473 -285.40600098 347.48418945 -286.32348633 347.44384766 C-287.57488403 347.38076416 -287.57488403 347.38076416 -288.8515625 347.31640625 C-289.60260254 347.27974854 -290.35364258 347.24309082 -291.12744141 347.20532227 C-293 347 -293 347 -295 346 C-294.67 344.35 -294.34 342.7 -294 341 C-293.09870361 341.00523682 -292.19740723 341.01047363 -291.26879883 341.01586914 C-287.85993789 341.03311759 -284.45112468 341.04554903 -281.04223633 341.05493164 C-279.57901264 341.05989824 -278.11579375 341.06667378 -276.65258789 341.07543945 C-275.94803467 341.07954834 -275.24348145 341.08365723 -274.51757812 341.08789062 C-273.81580444 341.09203979 -273.11403076 341.09618896 -272.39099121 341.10046387 C-270.26434457 341.09764939 -268.14162771 341.0497562 -266.015625 341 C-263.38829567 340.95108613 -261.19647908 341.12052814 -258.5625 341.515625 C-254.60360019 341.88782926 -252.6192074 341.72490936 -249 340 C-242.95574622 333.93418941 -238.77342603 326.15216466 -234.375 318.875 C-233.1343816 316.88411211 -231.88962136 314.89579889 -230.640625 312.91015625 C-228.80758033 309.99594999 -226.97705679 307.08068384 -225.16279602 304.15473938 C-220.85276253 297.22889762 -216.26115006 290.60404862 -211.33422852 284.10571289 C-208.98254753 280.97677932 -206.7642693 277.79791334 -204.5625 274.5625 C-199.27442234 266.8664584 -193.65511168 259.42878593 -188 252 C-187.31623291 251.1013623 -187.31623291 251.1013623 -186.61865234 250.18457031 C-181.17640523 243.04450246 -175.64551541 235.98080253 -170 229 C-169.53223145 228.41879395 -169.06446289 227.83758789 -168.58251953 227.23876953 C-161.37453542 218.28394673 -154.04368374 209.45576004 -146.5234375 200.76171875 C-143.82216105 197.63793496 -141.12926369 194.50698049 -138.4375 191.375 C-137.93661865 190.79476074 -137.4357373 190.21452148 -136.91967773 189.61669922 C-134.95310102 187.32938602 -133.04046073 185.05658972 -131.28515625 182.6015625 C-130.86105469 182.07304687 -130.43695313 181.54453125 -130 181 C-129.34 181 -128.68 181 -128 181 C-127.73155273 180.40936768 -127.46310547 179.81873535 -127.18652344 179.21020508 C-125.99253485 176.98609424 -124.75306605 175.45647914 -123.015625 173.63671875 C-122.41758057 173.00515869 -121.81953613 172.37359863 -121.20336914 171.72290039 C-120.55875732 171.05121826 -119.91414551 170.37953613 -119.25 169.6875 C-117.87867135 168.24241037 -116.50758289 166.79709279 -115.13671875 165.3515625 C-114.44239746 164.62227539 -113.74807617 163.89298828 -113.03271484 163.14160156 C-110.62564207 160.60558878 -108.23877817 158.05146665 -105.8575592 155.49119568 C-104.16467457 153.67228115 -102.46921236 151.85581858 -100.77270508 150.0402832 C-98.3363282 147.43279486 -95.90474467 144.82096382 -93.47607422 142.20629883 C-82.47907844 130.40636534 -71.0903896 119.02985958 -59.6081543 107.70410156 C-47.6348068 95.96878602 -47.6348068 95.96878602 -36.76098633 83.23291016 C-34.83025691 80.78476774 -32.75789251 78.52301859 -30.625 76.25 C-15.92981226 60.06734125 -0.64322817 39.6944482 -0.76953125 17.13671875 C-1.03854442 13.47540385 -2.0260374 11.07938166 -4 8 C-4.6875 5.625 -4.6875 5.625 -5 4 C-3.35 2.68 -1.7 1.36 0 0 Z " fill="#C1B0FB" transform="translate(403,68)"/>
<path d="M0 0 C1.74593073 1.42343397 3.35843666 2.80168907 4.83984375 4.5 C4.83984375 5.16 4.83984375 5.82 4.83984375 6.5 C2.52984375 7.82 0.21984375 9.14 -2.16015625 10.5 C-3.46223958 9.29557292 -4.76432292 8.09114583 -6.06640625 6.88671875 C-11.86126035 3.04870904 -17.87159539 1.93979074 -24.72265625 2 C-25.50568115 2.00644531 -26.28870605 2.01289062 -27.09545898 2.01953125 C-35.01797786 2.26367172 -41.89779033 4.39586374 -49.16015625 7.5 C-49.80210937 7.76280762 -50.4440625 8.02561523 -51.10546875 8.29638672 C-70.9085013 16.49425975 -88.52020054 29.16524097 -105.16015625 42.5 C-106.17335938 43.30050781 -107.1865625 44.10101563 -108.23046875 44.92578125 C-114.17797633 49.69564844 -119.80442085 54.76403763 -125.390625 59.9453125 C-127.61934018 62.00113722 -129.86783544 64.01616957 -132.16015625 66 C-141.87616532 74.44424527 -151.13396678 83.31041647 -160.21655273 92.42602539 C-161.98502844 94.19991003 -163.75885669 95.96831777 -165.53320312 97.73632812 C-170.70942243 102.90947275 -175.81527553 108.08253435 -180.56518555 113.65551758 C-184.28629521 117.95874481 -188.27999925 122.0225935 -192.19921875 126.14453125 C-196.63838193 130.83221901 -200.9478001 135.60766183 -205.16015625 140.5 C-205.89177979 141.34836426 -205.89177979 141.34836426 -206.63818359 142.21386719 C-208.04421727 143.84847271 -209.44668007 145.48605839 -210.84765625 147.125 C-213.96039266 150.7662957 -217.0745108 154.40588718 -220.21484375 158.0234375 C-225.62366668 164.2665442 -230.88151734 170.58904316 -235.94775391 177.11376953 C-239.42840138 181.59279039 -243.00015474 185.98953012 -246.59765625 190.375 C-252.5190313 197.61982206 -258.17803573 205.0361156 -263.73242188 212.56494141 C-265.10511596 214.42540196 -266.48371406 216.28135193 -267.86328125 218.13671875 C-278.18943493 232.07164703 -288.25449347 246.24647553 -297.69140625 260.80078125 C-299.44559713 263.48760733 -301.31344102 266.05024406 -303.25390625 268.60546875 C-308.73226294 276.04349333 -312.18828702 281.40158185 -311.16015625 290.875 C-310.93675126 292.27957438 -310.70800136 293.68331436 -310.47265625 295.0859375 C-310.16015625 298.5 -310.16015625 298.5 -311.47265625 300.4765625 C-313.16015625 301.5 -313.16015625 301.5 -315.16015625 301.5 C-315.63594223 299.5841118 -316.11096901 297.66803166 -316.58203125 295.75097656 C-317.09741392 293.74429233 -317.68639335 291.7568396 -318.28515625 289.7734375 C-320.24481412 281.0424618 -319.49526641 275.88738995 -314.79541016 268.16210938 C-311.7155256 263.5067853 -308.4776349 258.98799189 -305.16015625 254.5 C-304.19482956 253.13982316 -303.23339128 251.77687121 -302.27734375 250.41015625 C-300.66377746 248.11212157 -299.02959375 245.83220592 -297.37109375 243.56640625 C-295.30047366 240.69460984 -293.34351978 237.77780651 -291.41015625 234.8125 C-279.72122215 217.13826831 -266.42694028 200.45233944 -253.1328125 183.96875 C-251.6259879 182.08298139 -250.13589374 180.18817351 -248.65625 178.28125 C-242.53199548 170.39741901 -236.17989398 162.76350726 -229.64208984 155.22021484 C-227.22764738 152.4175523 -224.85281296 149.58176761 -222.47265625 146.75 C-218.47119245 142.00129207 -214.37491908 137.35012764 -210.19921875 132.75390625 C-208.36929378 130.7311731 -206.57133897 128.68630565 -204.78515625 126.625 C-201.00762473 122.29169373 -197.12309028 118.05850701 -193.22607422 113.83300781 C-191.33383464 111.77931569 -189.45083717 109.71849684 -187.57397461 107.65063477 C-179.68464651 98.97934096 -171.46828065 90.65425504 -163.16796875 82.37744141 C-160.89596256 80.11084007 -158.62941181 77.83888041 -156.36328125 75.56640625 C-154.89485208 74.09863729 -153.42611305 72.63117824 -151.95703125 71.1640625 C-151.29225769 70.49726471 -150.62748413 69.83046692 -149.94256592 69.14346313 C-145.50828579 64.73097633 -140.89814119 60.58251588 -136.16015625 56.5 C-134.59404152 55.08733042 -133.03099155 53.67124656 -131.47265625 52.25 C-103.01944747 26.68085323 -40.79855827 -29.17438803 0 0 Z " fill="#C9A3FD" transform="translate(405.16015625,57.5)"/>
<path d="M0 0 C1.5 2.1875 1.5 2.1875 2 4 C-0.1875 6.0625 -0.1875 6.0625 -3 8 C-5.328125 7.640625 -5.328125 7.640625 -8 7 C-36.60978498 4.46705822 -66.52450848 29.41625707 -87.2734375 46.70703125 C-88.17320312 47.46371094 -89.07296875 48.22039062 -90 49 C-91.00289062 49.82886719 -92.00578125 50.65773437 -93.0390625 51.51171875 C-100.96681779 58.0954356 -108.51765652 65.03541952 -116.00244141 72.11572266 C-118.05025594 74.04740593 -120.10787561 75.96814048 -122.16796875 77.88671875 C-129.42332627 84.6552233 -136.59497163 91.49717826 -143.625 98.5 C-144.2636499 99.13405762 -144.9022998 99.76811523 -145.56030273 100.42138672 C-149.33335347 104.20686024 -152.91180535 108.11029577 -156.38623047 112.171875 C-158.02341036 114.02651994 -159.73383697 115.76846251 -161.5 117.5 C-164.53594925 120.48872337 -167.34508659 123.61706479 -170.125 126.84375 C-172.17359094 129.19962958 -174.27203002 131.5050746 -176.375 133.8125 C-180.32371445 138.18285684 -184.0462721 142.70303079 -187.75 147.28125 C-189.93501569 149.92147729 -192.19171391 152.4672972 -194.5 155 C-199.20633217 160.17206296 -203.60370691 165.56430312 -208 171 C-209.39577553 172.68754781 -210.79160993 174.37504693 -212.1875 176.0625 C-218.04808188 183.22429498 -223.69549673 190.55263947 -229.35449219 197.87402344 C-230.78656295 199.72424187 -232.2238023 201.570219 -233.6640625 203.4140625 C-240.11065047 211.70853236 -246.27552115 220.19250414 -252.3828125 228.73876953 C-253.90676337 230.869632 -255.43740932 232.99553966 -256.96875 235.12109375 C-268.1124541 250.66387472 -278.55681517 266.67577411 -288.3125 283.125 C-288.85769287 284.0430542 -289.40288574 284.9611084 -289.96459961 285.90698242 C-292.29005311 289.87638735 -294.3627488 293.68994689 -296 298 C-296.33 298 -296.66 298 -297 298 C-298.93781682 291.40950418 -300.04200741 285.79234571 -297.609375 279.2734375 C-295.61605174 275.6232647 -293.28364187 272.20247264 -290.91699219 268.78613281 C-288.63577502 265.4706399 -286.43120314 262.10885559 -284.2265625 258.7421875 C-268.03570835 234.10606962 -250.83842732 210.24827876 -232.62109375 187.06640625 C-231.09554041 185.12178524 -229.57763232 183.17149546 -228.0625 181.21875 C-222.73816387 174.37170788 -217.25927175 167.6877553 -211.625 161.09375 C-209.16084036 158.2044868 -206.76339 155.26481542 -204.375 152.3125 C-200.75165505 147.86096192 -196.98036128 143.57617545 -193.1171875 139.33203125 C-191.21948831 137.24176111 -189.35266585 135.13013885 -187.5 133 C-182.46736338 127.22862773 -177.34253531 121.5398699 -172.15625 115.90625 C-171.67317383 115.3812793 -171.19009766 114.85630859 -170.69238281 114.31542969 C-169.32248812 112.82867194 -167.95036811 111.3439655 -166.578125 109.859375 C-164.73829379 107.81883493 -163.01008367 105.78025457 -161.296875 103.640625 C-160.53890625 102.76921875 -159.7809375 101.8978125 -159 101 C-158.34 101 -157.68 101 -157 101 C-156.79455566 100.46930908 -156.58911133 99.93861816 -156.37744141 99.3918457 C-154.42634452 96.00388111 -151.72143301 93.45658995 -148.9609375 90.73046875 C-148.36125153 90.131241 -147.76156555 89.53201324 -147.14370728 88.91462708 C-145.87339709 87.64733463 -144.6006607 86.38247017 -143.32568359 85.11987305 C-141.3976141 83.20990182 -139.47750968 81.29220964 -137.55859375 79.37304688 C-126.49174163 68.33915647 -126.49174163 68.33915647 -120.58642578 63.37426758 C-118.80217358 61.82862959 -117.15276327 60.18477273 -115.5 58.5 C-111.83691768 54.78763855 -107.96156653 51.38897036 -104 48 C-103.09894531 47.20980469 -102.19789063 46.41960937 -101.26953125 45.60546875 C-78.53766342 25.82511907 -52.31212859 6.34296925 -23 -2 C-21.96552734 -2.30164063 -21.96552734 -2.30164063 -20.91015625 -2.609375 C-13.60518105 -4.10323496 -6.60706476 -3.3635966 0 0 Z " fill="#9C9CF8" transform="translate(394,70)"/>
<path d="M0 0 C1.83244534 2.74866801 2.62074883 4.63832251 3.55078125 7.74609375 C3.83759766 8.66583984 4.12441406 9.58558594 4.41992188 10.53320312 C5.01287308 12.46256513 5.59628919 14.39488449 6.16992188 16.33007812 C7.4112829 20.26334844 8.49782901 23.37087566 11.0859375 26.61328125 C15.43280511 28.68183085 19.55223242 28.67598877 24.3125 28.75 C25.70952148 28.79447266 25.70952148 28.79447266 27.13476562 28.83984375 C29.42326265 28.91025904 31.71075809 28.96309214 34 29 C32.34731644 34.21790658 29.13849298 38.26743724 25.9375 42.625 C25.35258789 43.42679687 24.76767578 44.22859375 24.16503906 45.0546875 C-4.06173726 83.49642571 -4.06173726 83.49642571 -23 94 C-26.2890625 94.296875 -26.2890625 94.296875 -29 94 C-30.52748144 92.47251856 -30.14614148 91.10452008 -30.1484375 88.98046875 C-29.76487806 59.4754497 -14.51545688 25.09194837 0 0 Z " fill="#36B9FA" transform="translate(96,386)"/>
<path d="M0 0 C0.13535156 0.85335938 0.27070312 1.70671875 0.41015625 2.5859375 C1.96649122 11.62572747 4.06231602 20.45213542 6.4375 29.3125 C6.72568604 30.39644043 7.01387207 31.48038086 7.31079102 32.59716797 C9.00633529 38.82064545 10.96939445 44.72899931 13.54321289 50.64916992 C14 53 14 53 12.59936523 55.30981445 C11.80767944 56.1464563 11.80767944 56.1464563 11 57 C7.90804562 53.47166801 6.20141334 50.44557037 4.78125 45.984375 C4.40798584 44.82292969 4.03472168 43.66148437 3.65014648 42.46484375 C3.08082397 40.62599609 3.08082397 40.62599609 2.5 38.75 C2.10562744 37.49832031 1.71125488 36.24664062 1.30493164 34.95703125 C-6 11.44537251 -6 11.44537251 -6 3 C-2.78571429 0 -2.78571429 0 0 0 Z " fill="#A8AAFB" transform="translate(96,356)"/>
<path d="M0 0 C0.33 0 0.66 0 1 0 C1.50615271 3.87422208 2.00382721 7.74948817 2.5 11.625 C2.64308594 12.71941406 2.78617187 13.81382812 2.93359375 14.94140625 C3.06894531 16.00488281 3.20429687 17.06835938 3.34375 18.1640625 C3.46943359 19.13811035 3.59511719 20.1121582 3.72460938 21.11572266 C4.50688345 29.30879529 4.50688345 29.30879529 2.625 31.875 C1 33 1 33 -1 33 C-6.427966 12.31315961 -6.427966 12.31315961 -4.046875 5.12109375 C-2.6875 2.9375 -2.6875 2.9375 0 0 Z " fill="#D4B2FD" transform="translate(91,326)"/>
<path d="M0 0 C2.63177237 2.63177237 2.47925475 4.27180227 2.8125 7.9375 C2.97685547 9.52884766 2.97685547 9.52884766 3.14453125 11.15234375 C3 14 3 14 1.63671875 15.87890625 C0 17 0 17 -2 17 C-4.52719362 8.22915156 -4.52719362 8.22915156 -3 4 C-1.4375 1.6875 -1.4375 1.6875 0 0 Z " fill="#C5AFFC" transform="translate(92,342)"/>
</svg>
